<svg width="16" height="16" viewBox="0 0 16 16" fill="none" xmlns="http://www.w3.org/2000/svg">
<g id="users-2 1" clip-path="url(#clip0_1618_4783)">
<path id="Vector" d="M2 4.99992C2 7.30112 3.86548 9.16658 6.16667 9.16658C8.46787 9.16658 10.3333 7.30112 10.3333 4.99992C10.3333 2.69873 8.46787 0.833252 6.16667 0.833252C3.86548 0.833252 2 2.69873 2 4.99992Z" fill="#636363"/>
<path id="Vector_2" d="M9.17316 9.11518C10.4778 8.21292 11.3326 6.70625 11.3326 4.99992C11.3326 3.29359 10.4778 1.78691 9.17316 0.884639C9.38696 0.850819 9.60616 0.833252 9.82942 0.833252C12.1306 0.833252 13.9961 2.69873 13.9961 4.99992C13.9961 7.30112 12.1306 9.16658 9.82942 9.16658C9.60616 9.16658 9.38696 9.14905 9.17316 9.11518Z" fill="#636363"/>
<path id="Vector_3" opacity="0.4" d="M1.10486 14.1007L0.833313 15.1667H11.5L11.2283 14.1005C10.6387 11.7863 8.55471 10.1667 6.16662 10.1667C3.77843 10.1667 1.69439 11.7865 1.10486 14.1007Z" fill="#636363"/>
<path id="Vector_4" opacity="0.4" d="M12.4897 15.1667L12.2358 13.971C11.8572 12.1876 10.5572 10.7955 8.89832 10.2501C9.20172 10.1953 9.51318 10.1667 9.83005 10.1667C12.2181 10.1667 14.3021 11.7863 14.8917 14.1005L15.1634 15.1667H12.4897Z" fill="#636363"/>
</g>
<defs>
<clipPath id="clip0_1618_4783">
<rect width="16" height="16" fill="white"/>
</clipPath>
</defs>
</svg>
