<svg width="16" height="16" viewBox="0 0 16 16" fill="none" xmlns="http://www.w3.org/2000/svg">
<g id="note-2 1">
<path id="Vector" opacity="0.4" d="M1.5 8.66675C1.5 6.64767 1.5 5.63813 1.82985 4.84179C2.26966 3.78 3.11325 2.93641 4.17504 2.4966C4.97138 2.16675 5.98092 2.16675 8 2.16675C10.0191 2.16675 11.0286 2.16675 11.8249 2.4966C12.8867 2.93641 13.7303 3.78 14.1701 4.84179C14.5 5.63813 14.5 6.64767 14.5 8.66675C14.5 10.6858 14.5 11.6953 14.1701 12.4917C13.7303 13.5535 12.8867 14.3971 11.8249 14.8369C11.0286 15.1667 10.0191 15.1667 8 15.1667C5.98092 15.1667 4.97138 15.1667 4.17504 14.8369C3.11325 14.3971 2.26966 13.5535 1.82985 12.4917C1.5 11.6953 1.5 10.6858 1.5 8.66675Z" fill="#636363"/>
<path id="Vector_2" fill-rule="evenodd" clip-rule="evenodd" d="M5.5 9C5.5 8.72387 5.72386 8.5 6 8.5H10C10.2761 8.5 10.5 8.72387 10.5 9C10.5 9.27613 10.2761 9.5 10 9.5H6C5.72386 9.5 5.5 9.27613 5.5 9Z" fill="#636363"/>
<path id="Vector_3" fill-rule="evenodd" clip-rule="evenodd" d="M5.5 6.33325C5.5 6.05711 5.72386 5.83325 6 5.83325H10C10.2761 5.83325 10.5 6.05711 10.5 6.33325C10.5 6.60939 10.2761 6.83325 10 6.83325H6C5.72386 6.83325 5.5 6.60939 5.5 6.33325Z" fill="#636363"/>
<path id="Vector_4" fill-rule="evenodd" clip-rule="evenodd" d="M5.5 11.6667C5.5 11.3906 5.72386 11.1667 6 11.1667H8.6666C8.94273 11.1667 9.1666 11.3906 9.1666 11.6667C9.1666 11.9429 8.94273 12.1667 8.6666 12.1667H6C5.72386 12.1667 5.5 11.9429 5.5 11.6667Z" fill="#636363"/>
<path id="Vector_5" fill-rule="evenodd" clip-rule="evenodd" d="M6 0.833252C6.27614 0.833252 6.5 1.05711 6.5 1.33325V3.33325C6.5 3.60939 6.27614 3.83325 6 3.83325C5.72386 3.83325 5.5 3.60939 5.5 3.33325V1.33325C5.5 1.05711 5.72386 0.833252 6 0.833252Z" fill="#636363"/>
<path id="Vector_6" fill-rule="evenodd" clip-rule="evenodd" d="M10 0.833252C10.2761 0.833252 10.5 1.05711 10.5 1.33325V3.33325C10.5 3.60939 10.2761 3.83325 10 3.83325C9.72387 3.83325 9.5 3.60939 9.5 3.33325V1.33325C9.5 1.05711 9.72387 0.833252 10 0.833252Z" fill="#636363"/>
</g>
</svg>
