<svg width="16" height="16" viewBox="0 0 16 16" fill="none" xmlns="http://www.w3.org/2000/svg">
<g id="document-2 1">
<path id="Vector" opacity="0.4" d="M2.16669 6.66658C2.16669 5.11552 2.16669 4.33999 2.37062 3.71235C2.78277 2.44386 3.77729 1.44934 5.04578 1.03719C5.67342 0.833252 6.44895 0.833252 8.00002 0.833252C9.55109 0.833252 10.3266 0.833252 10.9543 1.03719C12.2228 1.44934 13.2173 2.44386 13.6294 3.71235C13.8334 4.33999 13.8334 5.11552 13.8334 6.66658V9.33325C13.8334 10.8843 13.8334 11.6599 13.6294 12.2875C13.2173 13.556 12.2228 14.5505 10.9543 14.9627C10.3266 15.1666 9.55109 15.1666 8.00002 15.1666C6.44895 15.1666 5.67342 15.1666 5.04578 14.9627C3.77729 14.5505 2.78277 13.556 2.37062 12.2875C2.16669 11.6599 2.16669 10.8843 2.16669 9.33325V6.66658Z" fill="#636363"/>
<path id="Vector_2" fill-rule="evenodd" clip-rule="evenodd" d="M5.5 8C5.5 7.72387 5.72386 7.5 6 7.5H10C10.2761 7.5 10.5 7.72387 10.5 8C10.5 8.27613 10.2761 8.5 10 8.5H6C5.72386 8.5 5.5 8.27613 5.5 8Z" fill="#636363"/>
<path id="Vector_3" fill-rule="evenodd" clip-rule="evenodd" d="M5.5 5.33325C5.5 5.05711 5.72386 4.83325 6 4.83325H10C10.2761 4.83325 10.5 5.05711 10.5 5.33325C10.5 5.60939 10.2761 5.83325 10 5.83325H6C5.72386 5.83325 5.5 5.60939 5.5 5.33325Z" fill="#636363"/>
<path id="Vector_4" fill-rule="evenodd" clip-rule="evenodd" d="M5.5 10.6667C5.5 10.3906 5.72386 10.1667 6 10.1667H8.6666C8.94273 10.1667 9.1666 10.3906 9.1666 10.6667C9.1666 10.9429 8.94273 11.1667 8.6666 11.1667H6C5.72386 11.1667 5.5 10.9429 5.5 10.6667Z" fill="#636363"/>
</g>
</svg>
