<svg width="40" height="40" viewBox="0 0 40 40" fill="none" xmlns="http://www.w3.org/2000/svg">
<g id="document-3 1">
<path id="Vector (Stroke)" opacity="0.4" fill-rule="evenodd" clip-rule="evenodd" d="M15.5184 4.65319C14.4122 4.72186 13.6777 4.85462 13.0668 5.0825C10.9153 5.88494 9.21827 7.58197 8.41583 9.73342C8.18795 10.3444 8.05519 11.0788 7.98652 12.185C7.91723 13.3011 7.91667 14.711 7.91667 16.6667V23.3333C7.91667 25.289 7.91723 26.6989 7.98652 27.815C8.05519 28.9212 8.18795 29.6557 8.41583 30.2667C9.21826 32.418 10.9153 34.115 13.0668 34.9175C13.6777 35.1454 14.4122 35.2782 15.5184 35.3468C16.6344 35.4161 18.0443 35.4167 20 35.4167C21.9557 35.4167 23.3656 35.4161 24.4816 35.3468C25.5878 35.2782 26.3223 35.1454 26.9333 34.9175C29.0847 34.115 30.7817 32.418 31.5842 30.2667C31.812 29.6557 31.9448 28.9212 32.0135 27.815C32.0828 26.6989 32.0833 25.289 32.0833 23.3333V16.6667C32.0833 14.711 32.0828 13.3011 32.0135 12.185C31.9448 11.0789 31.812 10.3444 31.5842 9.73345C30.7817 7.58199 29.0846 5.88493 26.9334 5.0825C26.3224 4.85462 25.5878 4.72186 24.4816 4.65319C23.3656 4.5839 21.9557 4.58334 20 4.58334C18.0443 4.58334 16.6344 4.5839 15.5184 4.65319ZM19.9576 2.08334H20.0424C21.9467 2.08334 23.4339 2.08334 24.6365 2.15799C25.8579 2.23381 26.8683 2.39003 27.807 2.74012C30.6377 3.79597 32.8707 6.02892 33.9265 8.85976C34.2766 9.79837 34.4329 10.8088 34.5087 12.0301C34.5833 13.2327 34.5833 14.72 34.5833 16.6244V23.3757C34.5833 25.28 34.5833 26.7673 34.5087 27.9699C34.4329 29.1913 34.2766 30.2017 33.9265 31.1403C32.8707 33.971 30.6377 36.204 27.807 37.2599C26.8684 37.61 25.8579 37.7662 24.6365 37.842C23.4339 37.9167 21.9467 37.9167 20.0423 37.9167H19.9577C18.0533 37.9167 16.5661 37.9167 15.3635 37.842C14.1421 37.7662 13.1317 37.61 12.1931 37.2599C9.36224 36.204 7.12931 33.9711 6.07346 31.1404C5.72337 30.2017 5.56714 29.1913 5.49132 27.9699C5.41666 26.7673 5.41667 25.28 5.41667 23.3757V16.6243C5.41667 14.72 5.41666 13.2327 5.49132 12.0301C5.56714 10.8088 5.72336 9.79839 6.07345 8.85976C7.1293 6.02891 9.36224 3.79598 12.1931 2.74013C13.1317 2.39003 14.1421 2.23381 15.3635 2.15799C16.5661 2.08334 18.0533 2.08334 19.9576 2.08334Z" fill="#00190E"/>
<path id="Vector (Stroke)_2" fill-rule="evenodd" clip-rule="evenodd" d="M13.75 20C13.75 19.3096 14.3096 18.75 15 18.75H25C25.6904 18.75 26.25 19.3096 26.25 20C26.25 20.6904 25.6904 21.25 25 21.25H15C14.3096 21.25 13.75 20.6904 13.75 20Z" fill="#00190E"/>
<path id="Vector (Stroke)_3" fill-rule="evenodd" clip-rule="evenodd" d="M13.75 13.3333C13.75 12.643 14.3096 12.0833 15 12.0833H25C25.6904 12.0833 26.25 12.643 26.25 13.3333C26.25 14.0237 25.6904 14.5833 25 14.5833H15C14.3096 14.5833 13.75 14.0237 13.75 13.3333Z" fill="#00190E"/>
<path id="Vector (Stroke)_4" fill-rule="evenodd" clip-rule="evenodd" d="M13.75 26.6667C13.75 25.9763 14.3096 25.4167 15 25.4167H21.6665C22.3569 25.4167 22.9165 25.9763 22.9165 26.6667C22.9165 27.357 22.3569 27.9167 21.6665 27.9167H15C14.3096 27.9167 13.75 27.357 13.75 26.6667Z" fill="#00190E"/>
</g>
</svg>
