<svg width="40" height="40" viewBox="0 0 40 40" fill="none" xmlns="http://www.w3.org/2000/svg">
<g id="rectangle-qr-3 1">
<path id="Vector (Stroke)" opacity="0.4" fill-rule="evenodd" clip-rule="evenodd" d="M13.7073 4.69929C12.1513 4.81354 11.105 5.03543 10.2336 5.42763C8.09822 6.38867 6.38866 8.09823 5.42762 10.2336C5.03542 11.105 4.81353 12.1513 4.69928 13.7073C4.58412 15.2758 4.58333 17.2619 4.58333 20C4.58333 22.738 4.58412 24.7242 4.69928 26.2927C4.81353 27.8487 5.03542 28.895 5.42763 29.7665C6.38865 31.9018 8.0982 33.6113 10.2335 34.5723C11.105 34.9645 12.1513 35.1865 13.7073 35.3007C15.2758 35.4159 17.2619 35.4167 20 35.4167C22.738 35.4167 24.7241 35.4159 26.2926 35.3007C27.8487 35.1865 28.895 34.9646 29.7665 34.5723C31.9018 33.6113 33.6113 31.9018 34.5723 29.7665C34.9645 28.8951 35.1865 27.8487 35.3007 26.2927C35.4159 24.7242 35.4167 22.738 35.4167 20C35.4167 17.2619 35.4159 15.2758 35.3007 13.7073C35.1865 12.1513 34.9645 11.105 34.5723 10.2336C33.6113 8.09827 31.9018 6.38866 29.7665 5.42764C28.895 5.03543 27.8487 4.81354 26.2927 4.69929C24.7241 4.58413 22.738 4.58334 20 4.58334C17.2619 4.58334 15.2758 4.58413 13.7073 4.69929ZM19.9492 2.08334H20.0508C22.7274 2.08334 24.805 2.08333 26.4757 2.206C28.1695 2.33036 29.5433 2.58568 30.7925 3.14788C33.4849 4.35962 35.6404 6.51517 36.8521 9.20755C37.4143 10.4567 37.6696 11.8306 37.794 13.5243C37.9167 15.195 37.9167 17.2725 37.9167 19.9491V20.0509C37.9167 22.7275 37.9167 24.805 37.794 26.4757C37.6696 28.1695 37.4143 29.5433 36.852 30.7925C35.6404 33.4849 33.4849 35.6404 30.7925 36.8521C29.5433 37.4143 28.1694 37.6696 26.4757 37.794C24.805 37.9167 22.7274 37.9167 20.0509 37.9167H19.9491C17.2725 37.9167 15.1949 37.9167 13.5242 37.794C11.8305 37.6696 10.4567 37.4143 9.20754 36.8521C6.51516 35.6404 4.35961 33.4849 3.14787 30.7925C2.58567 29.5433 2.33035 28.1695 2.20599 26.4757C2.08332 24.805 2.08333 22.7274 2.08333 20.0508V19.9492C2.08333 17.2726 2.08332 15.195 2.20599 13.5243C2.33035 11.8305 2.58566 10.4567 3.14787 9.20753C4.35961 6.51516 6.51515 4.35962 9.20751 3.14789C10.4567 2.58568 11.8305 2.33036 13.5243 2.206C15.195 2.08333 17.2725 2.08334 19.9492 2.08334Z" fill="#00190E"/>
<path id="Vector" d="M15 23.3333C14.0795 23.3333 13.3333 24.0795 13.3333 25C13.3333 25.9205 14.0795 26.6667 15 26.6667C15.9205 26.6667 16.6667 25.9205 16.6667 25C16.6667 24.0795 15.9205 23.3333 15 23.3333Z" fill="#00190E"/>
<path id="Vector_2" d="M20 23.3333C19.0795 23.3333 18.3333 24.0795 18.3333 25C18.3333 25.9205 19.0795 26.6667 20 26.6667C20.9205 26.6667 21.6667 25.9205 21.6667 25C21.6667 24.0795 20.9205 23.3333 20 23.3333Z" fill="#00190E"/>
<path id="Vector_3" d="M30 23.3333C29.0795 23.3333 28.3333 24.0795 28.3333 25C28.3333 25.9205 29.0795 26.6667 30 26.6667C30.9205 26.6667 31.6667 25.9205 31.6667 25C31.6667 24.0795 30.9205 23.3333 30 23.3333Z" fill="#00190E"/>
<path id="Vector (Stroke)_2" fill-rule="evenodd" clip-rule="evenodd" d="M10 12.0833C10.6904 12.0833 11.25 12.643 11.25 13.3333V26.6667C11.25 27.357 10.6904 27.9167 10 27.9167C9.30964 27.9167 8.75 27.357 8.75 26.6667V13.3333C8.75 12.643 9.30964 12.0833 10 12.0833Z" fill="#00190E"/>
<path id="Vector (Stroke)_3" fill-rule="evenodd" clip-rule="evenodd" d="M15 12.0833C15.6904 12.0833 16.25 12.643 16.25 13.3333V20C16.25 20.6904 15.6904 21.25 15 21.25C14.3096 21.25 13.75 20.6904 13.75 20V13.3333C13.75 12.643 14.3096 12.0833 15 12.0833Z" fill="#00190E"/>
<path id="Vector (Stroke)_4" fill-rule="evenodd" clip-rule="evenodd" d="M20 12.0833C20.6904 12.0833 21.25 12.643 21.25 13.3333V20C21.25 20.6904 20.6904 21.25 20 21.25C19.3096 21.25 18.75 20.6904 18.75 20V13.3333C18.75 12.643 19.3096 12.0833 20 12.0833Z" fill="#00190E"/>
<path id="Vector (Stroke)_5" fill-rule="evenodd" clip-rule="evenodd" d="M25 12.0833C25.6904 12.0833 26.25 12.643 26.25 13.3333V26.6667C26.25 27.357 25.6904 27.9167 25 27.9167C24.3096 27.9167 23.75 27.357 23.75 26.6667V13.3333C23.75 12.643 24.3096 12.0833 25 12.0833Z" fill="#00190E"/>
<path id="Vector (Stroke)_6" fill-rule="evenodd" clip-rule="evenodd" d="M30 12.0833C30.6904 12.0833 31.25 12.643 31.25 13.3333V20C31.25 20.6904 30.6904 21.25 30 21.25C29.3096 21.25 28.75 20.6904 28.75 20V13.3333C28.75 12.643 29.3096 12.0833 30 12.0833Z" fill="#00190E"/>
</g>
</svg>
